# xmcd CD database file
#
# Track frame offsets:
#	150
#	11035
#	23240
#	34562
#	51615
#	65277
#	78185
#	90602
#	103692
#	114407
#	125597
#	142545
#	153112
#	165900
#
# Disc length: 2360 seconds
#
# Revision: 0
# Processed by: cddbd v1.5.1PL0 Copyright (c) Steve Scherf et al.
# Submitted via: CDex 1.51
#
DISCID=a009360e
DTITLE=Selma do Coco - Jangadeiro
DYEAR=2002
DGENRE=Folklore Nacional
TTITLE0=Chamada pra D Selma
TTITLE1=Jangadeiro
TTITLE2=Rolinha
TTITLE3=Tuninha
TTITLE4=Cabo de S Agostinho
TTITLE5=Meu sabiah
TTITLE6=Fazendo vento
TTITLE7=Usina maravilhosa
TTITLE8=Mano
TTITLE9=Cordao de prata
TTITLE10=O que eh q Selma tem
TTITLE11=Itapissuma
TTITLE12=Eu vou pra Olinda
TTITLE13=Nao erre cantor
EXTD=YEAR: 2002
EXTT0=
EXTT1=
EXTT2=
EXTT3=
EXTT4=
EXTT5=
EXTT6=
EXTT7=
EXTT8=
EXTT9=
EXTT10=
EXTT11=
EXTT12=
EXTT13=
PLAYORDER=
